<?xml version="1.0" standalone="no"?>
<!DOCTYPE svg PUBLIC "-//W3C//DTD SVG 20010904//EN"
 "http://www.w3.org/TR/2001/REC-SVG-20010904/DTD/svg10.dtd">
<svg version="1.0" xmlns="http://www.w3.org/2000/svg"
 width="300.000000pt" height="325.000000pt" viewBox="0 0 300.000000 325.000000"
 preserveAspectRatio="xMidYMid meet">

<g transform="translate(0.000000,325.000000) scale(0.100000,-0.100000)"
fill="#000000" stroke="none">
<path d="M2691 3065 c-96 -41 -179 -79 -184 -84 -6 -6 -17 -11 -24 -11 -7 0
-44 -14 -81 -31 -37 -16 -69 -30 -72 -30 -3 -1 -18 -8 -35 -16 -16 -9 -38 -20
-47 -24 -10 -5 -352 -9 -761 -9 -720 0 -744 -1 -761 -19 -17 -18 -32 -83 -86
-371 -12 -63 -32 -169 -45 -235 -14 -66 -29 -158 -34 -205 -6 -47 -21 -141
-35 -209 -21 -107 -28 -127 -55 -155 -17 -18 -29 -35 -26 -38 3 -3 -23 -31
-57 -64 -35 -32 -62 -61 -61 -65 1 -4 -14 -22 -35 -40 -20 -17 -86 -79 -146
-137 -99 -95 -107 -105 -92 -120 14 -14 26 -13 138 22 91 28 139 49 185 81 34
24 60 38 58 32 -2 -7 -16 -75 -30 -152 -15 -77 -35 -183 -45 -235 -48 -244
-90 -472 -98 -540 -15 -117 -37 -109 334 -112 l314 -3 -68 -70 c-37 -39 -95
-95 -130 -125 -54 -47 -60 -56 -48 -69 13 -12 44 -1 233 84 120 54 261 117
313 142 l95 44 265 0 265 -1 64 43 c35 23 71 47 80 52 80 50 111 73 144 103
20 20 37 33 37 29 0 -4 33 15 74 42 83 57 81 51 116 254 12 65 24 126 27 135
9 23 83 108 93 105 9 -2 146 148 143 156 -2 4 85 94 193 202 192 192 195 196
192 234 l-3 38 -32 -27 c-30 -25 -252 -183 -433 -308 l-85 -59 -42 48 c-23 26
-41 50 -40 53 1 3 -22 30 -51 60 -28 30 -52 61 -52 68 0 15 40 70 40 56 1 -5
9 1 19 13 10 12 21 20 24 17 2 -3 28 19 57 48 29 29 56 52 60 51 4 -1 20 11
35 27 25 26 32 49 57 182 77 411 108 579 108 594 0 20 -70 105 -80 99 -5 -3
-27 17 -51 44 -23 28 -46 49 -51 48 -5 -1 -16 7 -23 18 -13 19 -5 27 137 135
83 63 183 139 222 168 86 64 100 80 85 99 -6 7 -17 13 -23 12 -6 -1 -89 -34
-185 -74z m-1181 -769 c0 -5 -110 -85 -137 -99 -8 -5 -7 6 3 38 7 25 16 50 19
55 6 10 115 15 115 6z m380 -5 c0 -3 -19 -104 -42 -223 l-43 -218 -253 0
c-288 0 -269 -8 -204 88 22 31 41 62 43 67 2 8 264 194 388 275 21 14 111 23
111 11z m-175 -978 c-2 -10 -20 -106 -40 -213 -20 -107 -39 -208 -43 -225 l-8
-30 -252 -3 -253 -2 6 37 c3 21 10 58 15 83 5 25 16 86 25 135 9 50 20 110 25
135 5 25 12 57 15 73 l5 27 254 0 c237 0 254 -1 251 -17z"/>
<path d="M2305 520 c-8 -12 20 -24 35 -15 6 3 8 11 5 16 -8 12 -32 12 -40 -1z"/>
</g>
</svg>
