<?xml version="1.0" standalone="no"?>
<!DOCTYPE svg PUBLIC "-//W3C//DTD SVG 20010904//EN"
 "http://www.w3.org/TR/2001/REC-SVG-20010904/DTD/svg10.dtd">
<svg version="1.0" xmlns="http://www.w3.org/2000/svg"
 width="300.000000pt" height="325.000000pt" viewBox="0 0 300.000000 325.000000"
 preserveAspectRatio="xMidYMid meet">

<g transform="translate(0.000000,325.000000) scale(0.100000,-0.100000)"
fill="#000000" stroke="none">
<path d="M2967 2910 c-10 -12 -22 -18 -27 -15 -11 7 -66 -19 -95 -45 -11 -10
-74 -46 -139 -80 -65 -34 -141 -75 -168 -91 -26 -16 -48 -27 -48 -24 0 2 -24
-12 -52 -31 -29 -19 -58 -34 -64 -34 -8 0 -13 38 -15 123 -3 86 -8 129 -18
140 -12 16 -67 17 -611 17 -466 0 -600 -3 -607 -12 -6 -7 -22 -47 -36 -88 -14
-41 -40 -113 -57 -160 -17 -47 -40 -112 -51 -145 -11 -32 -27 -72 -36 -88 -14
-27 -28 -64 -108 -282 -18 -49 -49 -135 -70 -190 -20 -55 -53 -143 -72 -195
-35 -96 -61 -164 -128 -345 -35 -93 -58 -155 -115 -310 -12 -33 -26 -66 -32
-72 -6 -7 -7 -13 -3 -13 8 0 -192 -216 -333 -361 -78 -80 -83 -88 -80 -123 l3
-38 26 21 c15 11 29 18 31 15 3 -3 49 18 102 47 54 28 99 49 102 46 3 -2 0
-15 -5 -28 -42 -100 -81 -223 -74 -230 11 -11 817 -14 833 -4 6 4 10 16 10 27
0 12 15 66 33 122 19 56 50 153 70 216 19 63 48 154 63 202 l28 88 191 0 191
0 -4 -217 c-2 -120 -5 -224 -7 -231 -3 -7 -5 -16 -6 -20 -5 -20 -103 -138
-121 -145 -12 -4 -18 -13 -14 -22 3 -9 -11 -28 -39 -52 -24 -20 -42 -40 -39
-44 2 -4 -10 -21 -27 -38 -25 -26 -29 -34 -19 -46 17 -20 47 -19 76 4 13 10
72 38 131 61 60 24 125 52 147 62 35 18 62 19 386 18 282 0 349 2 358 13 8 10
10 69 7 200 l-5 186 116 133 c64 73 128 143 143 155 14 11 26 25 26 30 0 5 24
37 54 71 44 52 51 65 41 77 -17 20 -24 19 -84 -10 -109 -52 -291 -133 -294
-130 -2 2 -40 809 -54 1163 l-3 73 120 117 c460 447 505 494 505 523 0 34 -9
37 -33 9z m-1347 -867 l-2 -167 -63 -48 c-35 -26 -66 -48 -69 -48 -5 0 13 66
68 240 53 171 59 190 63 190 2 0 3 -75 3 -167z m0 -453 l0 -90 -110 0 c-64 0
-110 4 -110 10 0 7 207 170 217 170 2 0 3 -40 3 -90z"/>
</g>
</svg>
